# xmcd
# 
# Track frame offsets:
#     150
#     16075
#     31637
#     49762
#     66095
#     84762
#     107750
#     125325
#     138560
#     151015
# 
# Disc length: 2551
# 
# Revision: 4
# Processed by: cddbd v1.5.2PL0 Copyright (c) Steve Scherf et al.
# Submitted via: fre:ac v1.0.31
# 
DISCID=6c09f50a
DTITLE=Columbia Blues - Johnny Winter Scorchin' Blues
DYEAR=1992
DGENRE=Blues
TTITLE0=Walking By Myself
TTITLE1=Divin' Duck
TTITLE2=One Step At A Time
TTITLE3=Bladie Mae
TTITLE4=Mad Blues
TTITLE5=It Was Rainin'
TTITLE6=Mean Mistreater
TTITLE7=Mother-In-Law Blues
TTITLE8=Dallas
TTITLE9=Mean Town Blues
EXTD=LABEL =Sony Music Entertainment Inc.\nID =ZK52466\nUPC =07464-52466-2\nCOPYRIGHT =1992 YEAR: 1992
EXTT0=
EXTT1=
EXTT2=
EXTT3=
EXTT4=
EXTT5=
EXTT6=
EXTT7=
EXTT8=
EXTT9=
PLAYORDER=
